<?xml version="1.0" encoding="UTF-8" standalone="no"?>
<!-- Generator: Adobe Illustrator 16.0.0, SVG Export Plug-In . SVG Version: 6.00 Build 0)  -->
<svg xmlns:dc="http://purl.org/dc/elements/1.1/" xmlns:cc="http://creativecommons.org/ns#" xmlns:rdf="http://www.w3.org/1999/02/22-rdf-syntax-ns#" xmlns:svg="http://www.w3.org/2000/svg" xmlns="http://www.w3.org/2000/svg" xmlns:xlink="http://www.w3.org/1999/xlink" xmlns:sodipodi="http://sodipodi.sourceforge.net/DTD/sodipodi-0.dtd" xmlns:inkscape="http://www.inkscape.org/namespaces/inkscape" version="1.1" id="Layer_1" x="0px" y="0px" width="800.224" height="799.94397" viewBox="99.938 -236.648 800.22402 799.94398" enable-background="new 99.938 -236.648 800.225 799.943" xml:space="preserve" inkscape:version="0.91 r13725" sodipodi:docname="AT&amp;T_Globe_(2016)_-_3D_Version.svg"><metadata id="metadata3014"><rdf:RDF><cc:Work rdf:about=""><dc:format>image/svg+xml</dc:format><dc:type rdf:resource="http://purl.org/dc/dcmitype/StillImage"/><dc:title/></cc:Work></rdf:RDF></metadata><defs id="defs3012"><linearGradient inkscape:collect="always" id="linearGradient3170"><stop style="stop-color:#00a8e0;stop-opacity:1" offset="0" id="stop3172"/><stop style="stop-color:#1696d4;stop-opacity:1" offset="1" id="stop3174"/></linearGradient><linearGradient inkscape:collect="always" id="linearGradient3160"><stop style="stop-color:white;stop-opacity:1" offset="0" id="stop3162"/><stop style="stop-color:#e6e6e6;stop-opacity:1" offset="1" id="stop3164"/></linearGradient><radialGradient r="43.452892" fy="90.500206" fx="64.85778" cy="90.500206" cx="64.85778" gradientTransform="matrix(1.6122245e-5,2.3792062,-3.7830221,0,386.63937,-52.298135)" gradientUnits="userSpaceOnUse" id="radialGradient8019" xlink:href="#linearGradient8021" inkscape:collect="always"/><radialGradient r="43.452892" fy="90.500206" fx="64.85778" cy="90.500206" cx="64.85778" gradientTransform="matrix(1.6122245e-5,2.3792062,-3.7830221,0,386.63937,-52.298135)" gradientUnits="userSpaceOnUse" id="radialGradient8016" xlink:href="#linearGradient8027" inkscape:collect="always"/><radialGradient r="43.452892" fy="90.500206" fx="64.85778" cy="90.500206" cx="64.85778" gradientTransform="matrix(1.6122245e-5,2.3792062,-3.7830221,0,386.63937,-52.298135)" gradientUnits="userSpaceOnUse" id="radialGradient8013" xlink:href="#linearGradient8033" inkscape:collect="always"/><radialGradient r="43.452892" fy="90.500206" fx="64.85778" cy="90.500206" cx="64.85778" gradientTransform="matrix(1.6122245e-5,2.3792062,-3.7830221,0,386.63937,-52.298135)" gradientUnits="userSpaceOnUse" id="radialGradient8010" xlink:href="#linearGradient8039" inkscape:collect="always"/><radialGradient r="43.452892" fy="90.500206" fx="64.85778" cy="90.500206" cx="64.85778" gradientTransform="matrix(1.6122245e-5,2.3792062,-3.7830221,0,386.63937,-52.298135)" gradientUnits="userSpaceOnUse" id="radialGradient8007" xlink:href="#linearGradient8045" inkscape:collect="always"/><radialGradient r="43.452892" fy="90.500206" fx="64.85778" cy="90.500206" cx="64.85778" gradientTransform="matrix(1.6122245e-5,2.3792062,-3.7830221,0,386.63937,-52.298135)" gradientUnits="userSpaceOnUse" id="radialGradient8004" xlink:href="#linearGradient8051" inkscape:collect="always"/><radialGradient r="43.452892" fy="90.500206" fx="64.85778" cy="90.500206" cx="64.85778" gradientTransform="matrix(7.0055819e-6,1.0277524,-1.6438325,0,213.62451,23.838182)" gradientUnits="userSpaceOnUse" id="radialGradient8001" xlink:href="#linearGradient7907" inkscape:collect="always"/><radialGradient r="43.452892" fy="90.500206" fx="64.85778" cy="90.500206" cx="64.85778" gradientTransform="matrix(7.0055819e-6,1.0277524,-1.6438325,0,213.62451,23.838182)" gradientUnits="userSpaceOnUse" id="radialGradient7999" xlink:href="#linearGradient7843" inkscape:collect="always"/><radialGradient r="43.452892" fy="90.500206" fx="64.85778" cy="90.500206" cx="64.85778" gradientTransform="matrix(7.0055819e-6,1.0277524,-1.6438325,0,213.62451,23.838182)" gradientUnits="userSpaceOnUse" id="radialGradient7997" xlink:href="#linearGradient7843" inkscape:collect="always"/><radialGradient r="43.452892" fy="90.500206" fx="64.85778" cy="90.500206" cx="64.85778" gradientTransform="matrix(7.0055819e-6,1.0277524,-1.6438325,0,213.62451,23.838182)" gradientUnits="userSpaceOnUse" id="radialGradient7995" xlink:href="#linearGradient7843" inkscape:collect="always"/><radialGradient r="43.452892" fy="90.500206" fx="64.85778" cy="90.500206" cx="64.85778" gradientTransform="matrix(7.0055819e-6,1.0277524,-1.6438325,0,213.62451,23.838182)" gradientUnits="userSpaceOnUse" id="radialGradient7993" xlink:href="#linearGradient7843" inkscape:collect="always"/><radialGradient r="43.452892" fy="90.500206" fx="64.85778" cy="90.500206" cx="64.85778" gradientTransform="matrix(7.0055819e-6,1.0277524,-1.6438325,0,213.62451,23.838182)" gradientUnits="userSpaceOnUse" id="radialGradient7991" xlink:href="#linearGradient7843" inkscape:collect="always"/><radialGradient r="43.452892" fy="90.500206" fx="64.85778" cy="90.500206" cx="64.85778" gradientTransform="matrix(7.0055819e-6,1.0277524,-1.6438325,0,213.62451,23.838182)" gradientUnits="userSpaceOnUse" id="radialGradient7989" xlink:href="#linearGradient7843" inkscape:collect="always"/><radialGradient r="43.452892" fy="90.500206" fx="64.85778" cy="90.500206" cx="64.85778" gradientTransform="matrix(1.3481092e-5,2.4368839,-3.1632858,0,354.85678,-54.180142)" gradientUnits="userSpaceOnUse" id="radialGradient7875" xlink:href="#linearGradient7947" inkscape:collect="always"/><radialGradient r="43.452892" fy="90.500206" fx="64.85778" cy="90.500206" cx="64.85778" gradientTransform="matrix(7.0055819e-6,1.0277524,-1.6438325,0,213.62451,23.838182)" gradientUnits="userSpaceOnUse" id="radialGradient7865" xlink:href="#linearGradient7907" inkscape:collect="always"/><radialGradient r="43.452892" fy="90.500206" fx="64.85778" cy="90.500206" cx="64.85778" gradientTransform="matrix(7.0055819e-6,1.0277524,-1.6438325,0,213.62451,23.838182)" gradientUnits="userSpaceOnUse" id="radialGradient7863" xlink:href="#linearGradient7843" inkscape:collect="always"/><radialGradient r="43.452892" fy="90.500206" fx="64.85778" cy="90.500206" cx="64.85778" gradientTransform="matrix(7.0055819e-6,1.0277524,-1.6438325,0,213.62451,23.838182)" gradientUnits="userSpaceOnUse" id="radialGradient7861" xlink:href="#linearGradient7843" inkscape:collect="always"/><radialGradient r="43.452892" fy="90.500206" fx="64.85778" cy="90.500206" cx="64.85778" gradientTransform="matrix(7.0055819e-6,1.0277524,-1.6438325,0,213.62451,23.838182)" gradientUnits="userSpaceOnUse" id="radialGradient7859" xlink:href="#linearGradient7843" inkscape:collect="always"/><radialGradient r="43.452892" fy="90.500206" fx="64.85778" cy="90.500206" cx="64.85778" gradientTransform="matrix(7.0055819e-6,1.0277524,-1.6438325,0,213.62451,23.838182)" gradientUnits="userSpaceOnUse" id="radialGradient7857" xlink:href="#linearGradient7843" inkscape:collect="always"/><radialGradient r="43.452892" fy="90.500206" fx="64.85778" cy="90.500206" cx="64.85778" gradientTransform="matrix(7.0055819e-6,1.0277524,-1.6438325,0,213.62451,23.838182)" gradientUnits="userSpaceOnUse" id="radialGradient7855" xlink:href="#linearGradient7843" inkscape:collect="always"/><radialGradient r="43.452892" fy="90.500206" fx="64.85778" cy="90.500206" cx="64.85778" gradientTransform="matrix(7.0055819e-6,1.0277524,-1.6438325,0,213.62451,23.838182)" gradientUnits="userSpaceOnUse" id="radialGradient7853" xlink:href="#linearGradient7843" inkscape:collect="always"/><radialGradient r="43.452892" fy="90.500206" fx="64.85778" cy="90.500206" cx="64.85778" gradientTransform="matrix(7.0055819e-6,1.0277524,-1.6438325,0,213.62451,23.838182)" gradientUnits="userSpaceOnUse" id="radialGradient7851" xlink:href="#linearGradient7843" inkscape:collect="always"/><radialGradient gradientUnits="userSpaceOnUse" gradientTransform="matrix(7.0055819e-6,1.0277524,-1.6438325,0,213.62451,23.838182)" r="43.452892" fy="90.500206" fx="64.85778" cy="90.500206" cx="64.85778" id="radialGradient7849" xlink:href="#linearGradient7843" inkscape:collect="always"/><linearGradient y2="0.63824469" x2="91.510223" y1="180" x1="91.510223" gradientUnits="userSpaceOnUse" id="linearGradient3159" xlink:href="#linearGradient3275" inkscape:collect="always"/><linearGradient gradientUnits="userSpaceOnUse" y2="0.63824469" x2="91.510223" y1="180" x1="91.510223" id="linearGradient3281" xlink:href="#linearGradient3275" inkscape:collect="always"/><linearGradient id="linearGradient3275" inkscape:collect="always"><stop id="stop3277" offset="0" style="stop-color:#ef7122;stop-opacity:1;"/><stop id="stop3279" offset="1" style="stop-color:#fbb215;stop-opacity:1"/></linearGradient><linearGradient id="linearGradient7843" inkscape:collect="always"><stop id="stop7845" offset="0" style="stop-color:#32a4da;stop-opacity:1;"/><stop id="stop7847" offset="1" style="stop-color:#32a4da;stop-opacity:0;"/></linearGradient><linearGradient inkscape:collect="always" id="linearGradient7907"><stop style="stop-color:black;stop-opacity:1" offset="0" id="stop7909"/><stop style="stop-color:black;stop-opacity:1" offset="1" id="stop7911"/></linearGradient><linearGradient inkscape:collect="always" id="linearGradient7947"><stop style="stop-color:white;stop-opacity:1" offset="0" id="stop7949"/><stop style="stop-color:#dbdee2;stop-opacity:1" offset="1" id="stop7951"/></linearGradient><linearGradient inkscape:collect="always" id="linearGradient8021"><stop style="stop-color:#32a4da;stop-opacity:1" offset="0" id="stop8023"/><stop style="stop-color:#1596d4;stop-opacity:1" offset="1" id="stop8025"/></linearGradient><linearGradient inkscape:collect="always" id="linearGradient8027"><stop style="stop-color:#32a4da;stop-opacity:1" offset="0" id="stop8029"/><stop style="stop-color:#1596d4;stop-opacity:1" offset="1" id="stop8031"/></linearGradient><linearGradient inkscape:collect="always" id="linearGradient8033"><stop style="stop-color:#32a4da;stop-opacity:1" offset="0" id="stop8035"/><stop style="stop-color:#1596d4;stop-opacity:1" offset="1" id="stop8037"/></linearGradient><linearGradient inkscape:collect="always" id="linearGradient8039"><stop style="stop-color:#32a4da;stop-opacity:1" offset="0" id="stop8041"/><stop style="stop-color:#1596d4;stop-opacity:1" offset="1" id="stop8043"/></linearGradient><linearGradient inkscape:collect="always" id="linearGradient8045"><stop style="stop-color:#32a4da;stop-opacity:1" offset="0" id="stop8047"/><stop style="stop-color:#1596d4;stop-opacity:1" offset="1" id="stop8049"/></linearGradient><linearGradient inkscape:collect="always" id="linearGradient8051"><stop style="stop-color:#32a4da;stop-opacity:1" offset="0" id="stop8053"/><stop style="stop-color:#1596d4;stop-opacity:1" offset="1" id="stop8055"/></linearGradient><radialGradient inkscape:collect="always" xlink:href="#linearGradient3160" id="radialGradient3166" cx="389.6778" cy="80.250427" fx="389.6778" fy="80.250427" r="400.10751" gradientTransform="matrix(1.5550879e-8,1.0680722,-1.2114537,3.4232194e-7,514.08426,-246.10137)" gradientUnits="userSpaceOnUse"/><radialGradient inkscape:collect="always" xlink:href="#linearGradient3170" id="radialGradient3176" cx="309.19046" cy="132.24107" fx="309.19046" fy="132.24107" r="400.112" gradientTransform="matrix(3.680679e-6,1.2026027,-1.4478872,0,551.76539,-203.01775)" gradientUnits="userSpaceOnUse"/><radialGradient inkscape:collect="always" xlink:href="#linearGradient3170" id="radialGradient3997" gradientUnits="userSpaceOnUse" gradientTransform="matrix(3.680679e-6,1.2026027,-1.4478872,0,551.76539,-203.01874)" cx="309.19046" cy="132.24107" fx="309.19046" fy="132.24107" r="400.112"/></defs><sodipodi:namedview pagecolor="#ffffff" bordercolor="#666666" borderopacity="1" objecttolerance="10" gridtolerance="10" guidetolerance="10" inkscape:pageopacity="0" inkscape:pageshadow="2" inkscape:window-width="1366" inkscape:window-height="709" id="namedview3010" showgrid="false" inkscape:zoom="0.5" inkscape:cx="556.08452" inkscape:cy="513.27106" inkscape:window-x="-8" inkscape:window-y="-8" inkscape:window-maximized="1" inkscape:current-layer="Layer_1" fit-margin-top="0" fit-margin-left="0" fit-margin-right="0" fit-margin-bottom="0"/><g id="g3178" transform="translate(0,9.9121524e-4)"><path d="m 254.695,479.198 c 67.835,52.511 152.979,84.06 245.354,84.06 101.092,0 193.248,-37.531 263.584,-99.141 0.854,-0.753 0.432,-1.251 -0.408,-0.753 -31.561,21.079 -121.516,67.09 -263.172,67.09 -123.104,0 -200.902,-27.468 -244.837,-51.989 -0.841,-0.415 -1.152,0.216 -0.521,0.733 m 272.513,20.443 c 98.461,0 206.658,-26.84 271.369,-79.97 17.708,-14.478 34.575,-33.743 49.683,-59.637 8.696,-14.899 17.202,-32.599 24.131,-49.998 0.308,-0.848 -0.217,-1.263 -0.854,-0.309 -60.177,88.557 -234.436,143.793 -414.366,143.793 -127.184,0 -264.027,-40.671 -317.604,-118.327 -0.528,-0.718 -1.055,-0.41 -0.733,0.414 49.91,106.085 201.324,164.034 388.374,164.034 M 419.63,323.657 c -204.782,0 -301.341,-95.374 -318.855,-160.461 -0.217,-0.943 -0.837,-0.736 -0.837,0.109 0,21.911 2.192,50.188 5.968,68.956 1.799,9.138 9.234,23.474 20.135,34.902 49.588,51.686 173.213,124.111 387.316,124.111 291.705,0 358.401,-97.168 372.021,-129.125 9.739,-22.854 14.784,-64.151 14.784,-98.845 0,-8.396 -0.211,-15.1 -0.528,-21.683 0,-1.067 -0.619,-1.155 -0.832,-0.114 C 884.227,219.701 635,323.657 419.63,323.657 M 138.511,-8.272 c -11.732,23.287 -24.74,62.574 -28.607,82.908 -1.695,8.711 -0.973,12.896 2.082,19.396 24.545,52.076 148.695,135.398 438.289,135.398 176.674,0 313.918,-43.404 336.152,-122.61 4.096,-14.581 4.313,-29.976 -0.946,-50.72 -5.876,-23.182 -16.883,-50.211 -26.198,-69.192 -0.308,-0.62 -0.85,-0.526 -0.739,0.205 C 862.004,91 572.296,157.954 426.121,157.954 267.789,157.954 135.695,94.87 135.695,15.216 c 0,-7.652 1.585,-15.309 3.562,-23.275 0.198,-0.731 -0.426,-0.852 -0.746,-0.213 m 625.77,-127.551 c 1.682,2.633 2.52,5.445 2.52,9.231 C 766.8,-82.154 630.796,-3.54 414.293,-3.54 c -159.078,0 -188.86,-59.014 -188.86,-96.544 0,-13.415 5.145,-27.143 16.477,-41.083 0.619,-0.829 0.093,-1.148 -0.622,-0.533 -20.666,17.514 -39.654,37.221 -56.312,58.493 -7.958,10.061 -12.898,18.974 -12.898,24.313 0,77.773 195.016,134.164 377.361,134.164 194.291,0 281.004,-63.426 281.004,-119.167 0,-19.921 -7.755,-31.55 -27.591,-54.095 -12.877,-14.668 -25.056,-26.609 -37.948,-38.365 -0.623,-0.512 -1.057,-0.093 -0.623,0.534 m -59.565,-44.429 c -59.964,-35.941 -129.594,-56.389 -204.664,-56.389 -75.592,0 -147.322,21.163 -207.5,58.056 -18.053,11.109 -28.211,20.01 -28.211,31.456 0,33.735 78.84,70.007 218.713,70.007 138.421,0 245.783,-39.73 245.783,-77.975 0.002,-9.127 -7.976,-15.514 -24.121,-25.155" id="path3008" inkscape:connector-curvature="0" style="fill:url(#radialGradient3997);fill-opacity:1"/></g></svg>